{"glyphs":{"0":{"ha":456,"x_min":0,"x_max":0,"o":"m 420 983 l 78 949 l 29 8 l 420 -16 z m 295 97 l 164 108 l 201 831 l 295 863 z "},"1":{"ha":415,"x_min":0,"x_max":0,"o":"m 74 899 l 69 748 l 242 803 b 192 8 226 540 192 8 l 341 11 l 386 974 z "},"2":{"ha":450,"x_min":0,"x_max":0,"o":"m 163 123 l 172 422 l 384 436 l 407 963 l 46 974 l 31 646 l 149 689 l 157 834 l 265 832 l 244 551 l 62 539 l 31 -5 l 422 16 l 422 166 z "},"3":{"ha":410,"x_min":0,"x_max":0,"o":"m 24 838 l 236 846 l 214 581 l 55 560 l 58 410 l 233 425 l 215 144 l 50 146 l 24 9 l 352 8 l 360 484 l 319 517 l 349 545 l 380 974 l 34 974 z "},"4":{"ha":433,"x_min":0,"x_max":0,"o":"m 398 975 l 283 959 l 261 650 l 142 584 l 178 975 b 40 967 158 973 85 970 l 22 441 l 261 503 l 261 21 l 398 7 l 398 538 l 398 538 z "},"5":{"ha":446,"x_min":0,"x_max":0,"o":"m 359 546 l 147 556 l 165 831 l 382 820 l 404 974 l 44 963 l 37 427 l 232 414 l 245 137 l 31 173 l 31 23 l 422 2 z "},"6":{"ha":431,"x_min":0,"x_max":0,"o":"m 386 796 l 404 968 l 45 956 l 35 165 l 33 165 l 33 15 l 375 -5 l 375 535 l 163 547 l 170 823 z m 266 402 l 266 97 l 152 142 l 159 410 z "},"7":{"ha":546,"x_min":0,"x_max":0,"o":"m 74 960 l 69 809 l 324 809 b 190 1 190 1 190 1 l 339 3 l 476 968 z "},"8":{"ha":447,"x_min":0,"x_max":0,"o":"m 357 491 l 408 943 l 32 968 l 32 491 l 79 481 l 32 -5 l 385 8 l 418 447 z m 300 106 l 159 106 l 173 440 l 300 394 z m 278 552 l 159 579 l 159 846 l 314 808 z "},"9":{"ha":439,"x_min":0,"x_max":0,"o":"m 36 968 l 68 401 l 259 415 l 242 151 l 53 142 l 25 7 l 366 7 l 407 968 z m 269 551 l 165 534 l 156 846 l 284 859 z "},"\u0000":{"ha":0,"x_min":0,"x_max":0,"o":""},"\n":{"ha":0,"x_min":0,"x_max":0,"o":""},"\r":{"ha":0,"x_min":0,"x_max":0,"o":""}," ":{"ha":258,"x_min":0,"x_max":0,"o":""},"!":{"ha":231,"x_min":0,"x_max":0,"o":"m 59 963 l 32 219 l 182 225 l 199 972 z m 32 0 l 168 16 l 168 155 l 32 155 z "},"#":{"ha":736,"x_min":0,"x_max":0,"o":"m 496 543 l 691 547 l 717 666 l 509 666 l 530 853 l 413 845 l 389 667 l 337 667 l 354 857 l 236 849 l 215 667 l 47 668 l 23 533 l 200 537 l 196 500 l 22 498 l 28 364 l 181 369 l 160 186 l 295 192 l 311 373 l 350 374 l 324 186 l 457 192 l 477 378 l 691 385 l 717 504 l 491 502 z m 323 501 l 326 539 l 372 540 l 367 501 z "},"$":{"ha":425,"x_min":0,"x_max":0,"o":"m 371 632 l 171 615 l 153 866 l 265 866 l 260 816 l 383 822 l 393 1003 l 273 997 l 273 1040 l 151 1040 l 151 991 l 31 985 l 44 467 l 240 484 l 251 166 l 162 170 l 165 221 l 37 225 l 33 39 l 151 38 l 151 0 l 273 0 l 273 37 l 393 36 z "},"%":{"ha":632,"x_min":0,"x_max":0,"o":"m 409 519 l 601 963 l 452 980 l 305 629 l 305 968 l 26 968 l 45 452 l 272 548 l 44 3 l 183 0 l 370 431 l 345 18 l 577 21 l 603 519 z m 135 611 l 127 813 l 204 849 l 227 633 z m 511 160 l 434 177 l 443 382 l 536 398 z "},"&":{"ha":531,"x_min":0,"x_max":0,"o":"m 521 77 l 428 240 l 504 526 l 404 526 l 355 365 l 274 506 l 383 612 l 450 966 l 104 966 l 50 658 l 116 547 l 48 493 l 29 19 l 374 37 l 389 92 l 444 0 z m 170 687 l 193 828 l 314 856 l 296 692 l 208 621 z m 290 151 l 165 122 l 128 362 l 190 423 l 311 221 z "},"'":{"ha":222,"x_min":0,"x_max":0,"o":"m 169 28 l 199 256 l 56 256 l 21 0 z "},"‘":{"ha":222,"x_min":0,"x_max":0,"o":"m 169 28 l 199 256 l 56 256 l 21 0 z "},"’":{"ha":222,"x_min":0,"x_max":0,"o":"m 169 28 l 199 256 l 56 256 l 21 0 z "},"(":{"ha":344,"x_min":0,"x_max":0,"o":"m 31 809 l 31 312 l 186 139 l 275 219 l 153 361 l 153 741 l 275 833 l 206 942 z "},")":{"ha":346,"x_min":0,"x_max":0,"o":"m 314 272 l 314 769 l 159 942 l 69 861 l 192 719 l 192 340 l 69 247 l 138 139 z "},"*":{"ha":400,"x_min":0,"x_max":0,"o":"m 274 1041 b 186 1053 235 1047 225 1048 l 171 983 l 84 1015 b 35 944 63 984 56 975 l 124 897 l 21 843 b 60 760 39 805 42 798 l 141 812 l 126 727 b 214 715 165 722 175 721 l 238 809 l 315 753 b 364 825 336 784 343 794 l 290 884 l 379 926 b 339 1009 360 964 357 971 l 255 983 z "},"+":{"ha":382,"x_min":0,"x_max":0,"o":"m 360 525 l 356 627 l 240 628 l 237 728 l 135 724 l 134 628 l 21 629 l 24 513 l 133 517 l 133 389 l 248 392 l 244 521 z "},",":{"ha":204,"x_min":0,"x_max":0,"o":"m 154 -76 l 184 152 l 41 152 l 6 -104 z "},"-":{"ha":382,"x_min":0,"x_max":0,"o":"m 356 603 l 21 605 l 24 456 l 360 471 z "},".":{"ha":182,"x_min":0,"x_max":0,"o":"m 22 155 l 22 0 l 159 16 l 159 155 z "},"/":{"ha":708,"x_min":0,"x_max":0,"o":"m 506 947 l 69 0 l 205 0 l 639 947 z "},":":{"ha":190,"x_min":0,"x_max":0,"o":"m 26 705 l 26 550 l 163 566 l 163 705 z m 26 360 l 163 376 l 163 515 l 26 515 z "},";":{"ha":228,"x_min":0,"x_max":0,"o":"m 64 713 l 64 558 l 200 574 l 200 713 z m 22 272 l 171 301 l 200 529 l 58 529 z "},"=":{"ha":388,"x_min":0,"x_max":0,"o":"m 363 573 l 359 675 l 24 677 l 26 561 z m 24 538 l 26 422 l 363 434 l 359 536 z "},"?":{"ha":428,"x_min":0,"x_max":0,"o":"m 43 953 l 28 625 l 147 668 l 155 814 l 262 811 l 241 530 l 59 518 l 64 219 l 198 219 l 186 387 l 381 400 l 404 943 z m 71 0 l 207 16 l 207 155 l 71 155 z "},"@":{"ha":826,"x_min":0,"x_max":0,"o":"m 576 640 l 196 580 l 239 201 l 538 236 l 693 60 l 803 228 l 713 840 l 29 782 l 55 133 l 231 0 b 568 9 231 0 556 17 b 498 142 580 0 498 142 l 258 121 l 149 201 l 125 677 l 615 725 l 693 300 l 607 326 z m 285 516 l 489 533 l 529 331 l 317 300 z "},"A":{"ha":432,"x_min":0,"x_max":0,"o":"m 335 985 l 80 1006 l 14 1 l 176 19 l 176 249 l 241 239 l 251 10 l 424 -13 z m 176 389 l 206 836 l 211 834 l 252 377 z "},"À":{"ha":432,"x_min":0,"x_max":0,"o":"m 335 985 l 80 1006 l 14 1 l 176 19 l 176 249 l 241 239 l 251 10 l 424 -13 z m 176 389 l 206 836 l 211 834 l 252 377 z "},"Á":{"ha":432,"x_min":0,"x_max":0,"o":"m 335 985 l 80 1006 l 14 1 l 176 19 l 176 249 l 241 239 l 251 10 l 424 -13 z m 176 389 l 206 836 l 211 834 l 252 377 z "},"Â":{"ha":432,"x_min":0,"x_max":0,"o":"m 335 985 l 80 1006 l 14 1 l 176 19 l 176 249 l 241 239 l 251 10 l 424 -13 z m 176 389 l 206 836 l 211 834 l 252 377 z "},"Ã":{"ha":432,"x_min":0,"x_max":0,"o":"m 335 985 l 80 1006 l 14 1 l 176 19 l 176 249 l 241 239 l 251 10 l 424 -13 z m 176 389 l 206 836 l 211 834 l 252 377 z "},"Ä":{"ha":432,"x_min":0,"x_max":0,"o":"m 335 985 l 80 1006 l 14 1 l 176 19 l 176 249 l 241 239 l 251 10 l 424 -13 z m 176 389 l 206 836 l 211 834 l 252 377 z "},"Å":{"ha":432,"x_min":0,"x_max":0,"o":"m 335 985 l 80 1006 l 14 1 l 176 19 l 176 249 l 241 239 l 251 10 l 424 -13 z m 176 389 l 206 836 l 211 834 l 252 377 z "},"B":{"ha":446,"x_min":0,"x_max":0,"o":"m 396 416 l 396 970 l 19 994 l 60 -36 l 424 74 l 424 390 z m 159 834 l 259 819 l 260 479 l 166 494 z m 288 178 l 192 127 l 173 365 l 288 331 z "},"C":{"ha":439,"x_min":0,"x_max":0,"o":"m 275 412 l 265 148 l 170 136 l 173 802 l 272 823 b 274 603 273 719 274 610 l 274 603 l 410 641 b 407 907 410 651 408 877 l 406 990 l 37 961 l 32 3 l 396 24 l 413 453 z "},"Ç":{"ha":439,"x_min":0,"x_max":0,"o":"m 275 412 l 265 148 l 170 136 l 173 802 l 272 823 b 274 603 273 719 274 610 l 274 603 l 410 641 b 407 907 410 651 408 877 l 406 990 l 37 961 l 32 3 l 396 24 l 413 453 z "},"D":{"ha":422,"x_min":0,"x_max":0,"o":"m 35 992 l 35 -9 l 378 12 l 396 962 z m 142 121 l 137 817 l 242 785 l 256 106 z "},"E":{"ha":393,"x_min":0,"x_max":0,"o":"m 268 818 l 308 816 l 362 814 l 386 965 l 35 977 l 35 14 l 353 34 l 361 188 l 171 159 l 171 385 l 353 432 l 361 569 l 171 557 l 171 821 z "},"È":{"ha":393,"x_min":0,"x_max":0,"o":"m 268 818 l 308 816 l 362 814 l 386 965 l 35 977 l 35 14 l 353 34 l 361 188 l 171 159 l 171 385 l 353 432 l 361 569 l 171 557 l 171 821 z "},"É":{"ha":393,"x_min":0,"x_max":0,"o":"m 268 818 l 308 816 l 362 814 l 386 965 l 35 977 l 35 14 l 353 34 l 361 188 l 171 159 l 171 385 l 353 432 l 361 569 l 171 557 l 171 821 z "},"Ê":{"ha":393,"x_min":0,"x_max":0,"o":"m 268 818 l 308 816 l 362 814 l 386 965 l 35 977 l 35 14 l 353 34 l 361 188 l 171 159 l 171 385 l 353 432 l 361 569 l 171 557 l 171 821 z "},"Ë":{"ha":393,"x_min":0,"x_max":0,"o":"m 268 818 l 308 816 l 362 814 l 386 965 l 35 977 l 35 14 l 353 34 l 361 188 l 171 159 l 171 385 l 353 432 l 361 569 l 171 557 l 171 821 z "},"F":{"ha":385,"x_min":0,"x_max":0,"o":"m 255 814 l 311 807 l 369 800 l 389 965 l 35 979 l 35 -2 l 171 23 l 171 375 l 337 401 l 344 522 l 171 512 l 171 824 z "},"G":{"ha":429,"x_min":0,"x_max":0,"o":"m 394 604 l 204 523 l 194 351 l 303 417 l 264 135 l 151 134 l 185 803 l 264 826 b 265 732 265 779 261 717 l 382 707 b 399 977 382 718 399 961 l 55 955 l 22 2 l 402 24 z "},"H":{"ha":468,"x_min":0,"x_max":0,"o":"m 318 949 l 303 563 l 179 535 l 189 969 l 35 955 l 35 -13 l 165 20 l 184 436 l 307 471 l 293 -1 l 416 39 l 445 971 z "},"I":{"ha":218,"x_min":0,"x_max":0,"o":"m 50 958 l 24 12 l 173 20 l 191 971 z "},"Ì":{"ha":218,"x_min":0,"x_max":0,"o":"m 50 958 l 24 12 l 173 20 l 191 971 z "},"Í":{"ha":218,"x_min":0,"x_max":0,"o":"m 50 958 l 24 12 l 173 20 l 191 971 z "},"Î":{"ha":218,"x_min":0,"x_max":0,"o":"m 50 958 l 24 12 l 173 20 l 191 971 z "},"Ï":{"ha":218,"x_min":0,"x_max":0,"o":"m 50 958 l 24 12 l 173 20 l 191 971 z "},"J":{"ha":388,"x_min":0,"x_max":0,"o":"m 206 971 l 241 143 l 117 159 l 152 296 l 7 256 l -10 49 l 354 12 l 354 971 z "},"K":{"ha":469,"x_min":0,"x_max":0,"o":"m 481 971 l 347 965 l 141 606 l 170 971 l 33 971 l 33 20 l 170 20 l 148 430 l 349 23 l 465 29 l 237 502 z "},"L":{"ha":358,"x_min":0,"x_max":0,"o":"m 352 139 l 160 139 b 212 964 177 403 212 964 l 63 962 l 18 20 l 376 18 z "},"M":{"ha":533,"x_min":0,"x_max":0,"o":"m 499 972 l 366 954 b 282 618 366 954 318 729 l 164 964 l 38 953 l 36 521 l 31 12 l 184 10 l 186 597 l 278 374 b 376 584 278 374 362 541 b 349 10 364 334 349 15 l 497 15 b 499 916 497 22 500 749 z "},"N":{"ha":506,"x_min":0,"x_max":0,"o":"m 321 964 b 329 285 319 914 328 506 l 178 971 l 29 971 l 35 510 l 35 18 l 172 18 l 172 510 l 172 531 l 293 20 l 466 15 b 475 970 466 15 471 884 z "},"Ñ":{"ha":506,"x_min":0,"x_max":0,"o":"m 321 964 b 329 285 319 914 328 506 l 178 971 l 29 971 l 35 510 l 35 18 l 172 18 l 172 510 l 172 531 l 293 20 l 466 15 b 475 970 466 15 471 884 z "},"O":{"ha":451,"x_min":0,"x_max":0,"o":"m 35 959 l 35 -8 l 410 12 l 422 975 z m 291 93 l 160 121 l 160 862 l 291 851 z "},"Ò":{"ha":451,"x_min":0,"x_max":0,"o":"m 35 959 l 35 -8 l 410 12 l 422 975 z m 291 93 l 160 121 l 160 862 l 291 851 z "},"Ó":{"ha":451,"x_min":0,"x_max":0,"o":"m 35 959 l 35 -8 l 410 12 l 422 975 z m 291 93 l 160 121 l 160 862 l 291 851 z "},"Ô":{"ha":451,"x_min":0,"x_max":0,"o":"m 35 959 l 35 -8 l 410 12 l 422 975 z m 291 93 l 160 121 l 160 862 l 291 851 z "},"Õ":{"ha":451,"x_min":0,"x_max":0,"o":"m 35 959 l 35 -8 l 410 12 l 422 975 z m 291 93 l 160 121 l 160 862 l 291 851 z "},"Ö":{"ha":451,"x_min":0,"x_max":0,"o":"m 35 959 l 35 -8 l 410 12 l 422 975 z m 291 93 l 160 121 l 160 862 l 291 851 z "},"Ø":{"ha":451,"x_min":0,"x_max":0,"o":"m 35 959 l 35 -8 l 410 12 l 422 975 z m 291 93 l 160 121 l 160 862 l 291 851 z "},"P":{"ha":399,"x_min":0,"x_max":0,"o":"m 387 487 l 392 953 l 35 961 l 35 524 l 35 524 l 35 -7 l 171 7 l 171 430 z m 171 823 l 288 822 l 302 619 l 171 579 z "},"Q":{"ha":440,"x_min":0,"x_max":0,"o":"m 410 -16 l 399 948 l 35 959 l 35 11 l 169 1 l 159 -98 l 259 -70 l 265 -6 z m 160 129 l 160 869 l 291 858 l 291 100 l 275 104 l 280 158 l 184 158 l 181 124 z "},"R":{"ha":457,"x_min":0,"x_max":0,"o":"m 302 9 l 461 4 b 207 536 418 91 262 412 l 375 471 l 417 983 l 41 959 l 29 14 l 160 27 b 161 357 165 11 156 188 b 302 9 217 232 265 88 z m 178 835 l 302 848 l 281 638 l 178 661 z "},"S":{"ha":417,"x_min":0,"x_max":0,"o":"m 168 580 l 151 832 l 263 832 l 244 668 l 374 680 l 391 968 l 28 950 l 42 433 l 237 449 l 249 132 l 159 136 l 170 354 l 37 350 l 30 5 l 390 1 l 368 598 z "},"T":{"ha":421,"x_min":0,"x_max":0,"o":"m 5 964 l -11 800 l 154 808 b 124 -7 142 495 124 20 l 259 1 b 285 813 259 32 274 580 l 426 786 l 433 946 z "},"U":{"ha":508,"x_min":0,"x_max":0,"o":"m 338 938 l 338 146 l 161 109 l 191 956 l 54 938 l 21 1 l 474 13 l 474 959 z "},"Ù":{"ha":508,"x_min":0,"x_max":0,"o":"m 338 938 l 338 146 l 161 109 l 191 956 l 54 938 l 21 1 l 474 13 l 474 959 z "},"Ú":{"ha":508,"x_min":0,"x_max":0,"o":"m 338 938 l 338 146 l 161 109 l 191 956 l 54 938 l 21 1 l 474 13 l 474 959 z "},"Û":{"ha":508,"x_min":0,"x_max":0,"o":"m 338 938 l 338 146 l 161 109 l 191 956 l 54 938 l 21 1 l 474 13 l 474 959 z "},"Ü":{"ha":508,"x_min":0,"x_max":0,"o":"m 338 938 l 338 146 l 161 109 l 191 956 l 54 938 l 21 1 l 474 13 l 474 959 z "},"V":{"ha":386,"x_min":0,"x_max":0,"o":"m 245 940 l 182 507 l 146 959 l 6 963 l 106 1 l 248 18 l 386 959 z "},"W":{"ha":638,"x_min":0,"x_max":0,"o":"m 482 963 l 440 480 l 369 965 l 255 962 b 163 475 239 828 194 655 b 148 987 151 646 148 870 l 13 969 b 79 78 22 720 79 78 l 88 -9 l 205 5 b 302 571 205 5 271 388 l 385 4 b 519 36 426 14 519 36 l 637 989 z "},"X":{"ha":511,"x_min":0,"x_max":0,"o":"m 339 509 l 504 990 l 360 972 l 263 669 l 216 986 l 63 982 l 166 495 l -11 0 l 137 21 l 260 345 l 375 4 l 518 4 z "},"Y":{"ha":426,"x_min":0,"x_max":0,"o":"m 310 970 l 217 746 l 113 970 l -15 962 l 152 562 l 142 1 l 278 24 l 289 563 l 448 988 z "},"Ý":{"ha":426,"x_min":0,"x_max":0,"o":"m 310 970 l 217 746 l 113 970 l -15 962 l 152 562 l 142 1 l 278 24 l 289 563 l 448 988 z "},"Ÿ":{"ha":426,"x_min":0,"x_max":0,"o":"m 310 970 l 217 746 l 113 970 l -15 962 l 152 562 l 142 1 l 278 24 l 289 563 l 448 988 z "},"Z":{"ha":493,"x_min":0,"x_max":0,"o":"m 503 980 l 45 957 l 29 776 l 290 797 l -6 10 l 439 39 l 478 178 l 191 147 z "},"[":{"ha":247,"x_min":0,"x_max":0,"o":"m 33 860 l 33 48 l 222 0 l 231 96 l 123 113 l 135 740 l 218 740 l 221 857 z "},"\\":{"ha":674,"x_min":0,"x_max":0,"o":"m 69 953 l 468 0 l 604 0 l 192 953 z "},"]":{"ha":247,"x_min":0,"x_max":0,"o":"m 26 856 l 28 740 l 112 740 l 123 113 l 15 96 l 25 0 l 213 48 l 213 860 z "},"^":{"ha":532,"x_min":0,"x_max":0,"o":"m 35 840 l 166 840 l 262 975 l 359 847 l 497 836 l 266 1113 z "},"_":{"ha":442,"x_min":0,"x_max":0,"o":"m 417 118 l 19 121 l 23 0 l 422 12 z "},"a":{"ha":432,"x_min":0,"x_max":0,"o":"m 335 985 l 80 1006 l 14 1 l 176 19 l 176 249 l 241 239 l 251 10 l 424 -13 z m 176 389 l 206 836 l 211 834 l 252 377 z "},"à":{"ha":432,"x_min":0,"x_max":0,"o":"m 335 985 l 80 1006 l 14 1 l 176 19 l 176 249 l 241 239 l 251 10 l 424 -13 z m 176 389 l 206 836 l 211 834 l 252 377 z "},"á":{"ha":432,"x_min":0,"x_max":0,"o":"m 335 985 l 80 1006 l 14 1 l 176 19 l 176 249 l 241 239 l 251 10 l 424 -13 z m 176 389 l 206 836 l 211 834 l 252 377 z "},"â":{"ha":432,"x_min":0,"x_max":0,"o":"m 335 985 l 80 1006 l 14 1 l 176 19 l 176 249 l 241 239 l 251 10 l 424 -13 z m 176 389 l 206 836 l 211 834 l 252 377 z "},"ã":{"ha":432,"x_min":0,"x_max":0,"o":"m 335 985 l 80 1006 l 14 1 l 176 19 l 176 249 l 241 239 l 251 10 l 424 -13 z m 176 389 l 206 836 l 211 834 l 252 377 z "},"ä":{"ha":432,"x_min":0,"x_max":0,"o":"m 335 985 l 80 1006 l 14 1 l 176 19 l 176 249 l 241 239 l 251 10 l 424 -13 z m 176 389 l 206 836 l 211 834 l 252 377 z "},"å":{"ha":432,"x_min":0,"x_max":0,"o":"m 335 985 l 80 1006 l 14 1 l 176 19 l 176 249 l 241 239 l 251 10 l 424 -13 z m 176 389 l 206 836 l 211 834 l 252 377 z "},"b":{"ha":449,"x_min":0,"x_max":0,"o":"m 398 416 l 397 970 l 21 994 l 62 -36 l 426 74 l 426 390 z m 160 834 l 261 819 l 261 479 l 167 494 z m 289 178 l 193 127 l 174 365 l 289 331 z "},"c":{"ha":442,"x_min":0,"x_max":0,"o":"m 276 412 l 267 148 l 172 136 l 174 802 l 273 823 b 276 603 274 719 276 610 l 276 603 l 412 641 b 409 907 412 651 409 877 l 408 990 l 39 961 l 33 3 l 398 24 l 414 453 z "},"ç":{"ha":442,"x_min":0,"x_max":0,"o":"m 276 412 l 267 148 l 172 136 l 174 802 l 273 823 b 276 603 274 719 276 610 l 276 603 l 412 641 b 409 907 412 651 409 877 l 408 990 l 39 961 l 33 3 l 398 24 l 414 453 z "},"d":{"ha":425,"x_min":0,"x_max":0,"o":"m 36 992 l 36 -9 l 379 12 l 397 962 z m 144 121 l 138 817 l 243 785 l 257 106 z "},"e":{"ha":394,"x_min":0,"x_max":0,"o":"m 268 817 l 308 816 l 362 814 l 386 965 l 35 977 l 35 14 l 353 34 l 361 188 l 171 159 l 171 385 l 353 432 l 361 569 l 171 557 l 171 821 z "},"è":{"ha":394,"x_min":0,"x_max":0,"o":"m 268 817 l 308 816 l 362 814 l 386 965 l 35 977 l 35 14 l 353 34 l 361 188 l 171 159 l 171 385 l 353 432 l 361 569 l 171 557 l 171 821 z "},"é":{"ha":394,"x_min":0,"x_max":0,"o":"m 268 817 l 308 816 l 362 814 l 386 965 l 35 977 l 35 14 l 353 34 l 361 188 l 171 159 l 171 385 l 353 432 l 361 569 l 171 557 l 171 821 z "},"ê":{"ha":394,"x_min":0,"x_max":0,"o":"m 268 817 l 308 816 l 362 814 l 386 965 l 35 977 l 35 14 l 353 34 l 361 188 l 171 159 l 171 385 l 353 432 l 361 569 l 171 557 l 171 821 z "},"ë":{"ha":394,"x_min":0,"x_max":0,"o":"m 268 817 l 308 816 l 362 814 l 386 965 l 35 977 l 35 14 l 353 34 l 361 188 l 171 159 l 171 385 l 353 432 l 361 569 l 171 557 l 171 821 z "},"f":{"ha":388,"x_min":0,"x_max":0,"o":"m 256 814 l 313 807 l 370 800 l 390 965 l 36 979 l 36 -2 l 173 23 l 173 375 l 338 401 l 346 522 l 173 512 l 173 824 z "},"g":{"ha":431,"x_min":0,"x_max":0,"o":"m 394 604 l 204 523 l 194 351 l 303 417 l 264 135 l 151 134 l 185 803 l 264 826 b 265 732 265 779 261 717 l 382 707 b 399 977 382 718 399 961 l 55 955 l 22 2 l 402 24 z "},"h":{"ha":469,"x_min":0,"x_max":0,"o":"m 318 949 l 303 563 l 179 535 l 189 969 l 35 955 l 35 -13 l 165 20 l 184 436 l 307 471 l 293 -1 l 416 39 l 445 971 z "},"i":{"ha":219,"x_min":0,"x_max":0,"o":"m 50 958 l 24 12 l 173 20 l 191 971 z "},"ì":{"ha":219,"x_min":0,"x_max":0,"o":"m 50 958 l 24 12 l 173 20 l 191 971 z "},"í":{"ha":219,"x_min":0,"x_max":0,"o":"m 50 958 l 24 12 l 173 20 l 191 971 z "},"î":{"ha":219,"x_min":0,"x_max":0,"o":"m 50 958 l 24 12 l 173 20 l 191 971 z "},"ï":{"ha":219,"x_min":0,"x_max":0,"o":"m 50 958 l 24 12 l 173 20 l 191 971 z "},"j":{"ha":389,"x_min":0,"x_max":0,"o":"m 206 971 l 241 143 l 117 159 l 152 296 l 7 256 l -10 49 l 354 12 l 354 971 z "},"k":{"ha":471,"x_min":0,"x_max":0,"o":"m 482 971 l 349 965 l 142 606 l 171 971 l 35 971 l 35 20 l 171 20 l 149 430 l 350 23 l 466 29 l 238 502 z "},"l":{"ha":360,"x_min":0,"x_max":0,"o":"m 352 139 l 160 139 b 212 964 177 403 212 964 l 63 962 l 18 20 l 376 18 z "},"m":{"ha":533,"x_min":0,"x_max":0,"o":"m 499 972 l 366 954 b 282 618 366 954 318 729 l 164 964 l 38 953 l 36 521 l 31 12 l 184 10 l 186 597 l 278 374 b 376 584 278 374 362 541 b 349 10 364 334 349 15 l 497 15 b 499 916 497 22 500 749 z "},"n":{"ha":507,"x_min":0,"x_max":0,"o":"m 322 964 b 330 285 320 914 329 506 l 179 971 l 31 971 l 37 510 l 37 18 l 173 18 l 173 510 l 173 531 l 294 20 l 467 15 b 477 970 467 15 473 884 z "},"ñ":{"ha":507,"x_min":0,"x_max":0,"o":"m 322 964 b 330 285 320 914 329 506 l 179 971 l 31 971 l 37 510 l 37 18 l 173 18 l 173 510 l 173 531 l 294 20 l 467 15 b 477 970 467 15 473 884 z "},"o":{"ha":453,"x_min":0,"x_max":0,"o":"m 35 959 l 35 -8 l 410 12 l 422 975 z m 291 93 l 160 121 l 160 862 l 291 851 z "},"ò":{"ha":453,"x_min":0,"x_max":0,"o":"m 35 959 l 35 -8 l 410 12 l 422 975 z m 291 93 l 160 121 l 160 862 l 291 851 z "},"ó":{"ha":453,"x_min":0,"x_max":0,"o":"m 35 959 l 35 -8 l 410 12 l 422 975 z m 291 93 l 160 121 l 160 862 l 291 851 z "},"ô":{"ha":453,"x_min":0,"x_max":0,"o":"m 35 959 l 35 -8 l 410 12 l 422 975 z m 291 93 l 160 121 l 160 862 l 291 851 z "},"õ":{"ha":453,"x_min":0,"x_max":0,"o":"m 35 959 l 35 -8 l 410 12 l 422 975 z m 291 93 l 160 121 l 160 862 l 291 851 z "},"ö":{"ha":453,"x_min":0,"x_max":0,"o":"m 35 959 l 35 -8 l 410 12 l 422 975 z m 291 93 l 160 121 l 160 862 l 291 851 z "},"ø":{"ha":453,"x_min":0,"x_max":0,"o":"m 35 959 l 35 -8 l 410 12 l 422 975 z m 291 93 l 160 121 l 160 862 l 291 851 z "},"p":{"ha":400,"x_min":0,"x_max":0,"o":"m 387 493 l 392 959 l 35 968 l 35 531 l 35 531 l 35 0 l 171 14 l 171 436 z m 171 830 l 288 829 l 302 625 l 171 586 z "},"q":{"ha":442,"x_min":0,"x_max":0,"o":"m 410 -17 l 399 948 l 35 959 l 35 11 l 169 1 l 159 -99 l 259 -70 l 265 -6 z m 160 128 l 160 869 l 291 858 l 291 100 l 275 103 l 280 157 l 184 158 l 181 124 z "},"r":{"ha":460,"x_min":0,"x_max":0,"o":"m 303 9 l 462 4 b 209 536 419 91 263 412 l 377 471 l 418 983 l 43 959 l 31 14 l 161 27 b 162 357 167 11 158 188 b 303 9 218 232 267 88 z m 179 835 l 303 848 l 282 638 l 179 661 z "},"s":{"ha":417,"x_min":0,"x_max":0,"o":"m 168 580 l 151 832 l 263 832 l 244 668 l 374 680 l 391 968 l 28 950 l 41 433 l 237 449 l 249 132 l 159 136 l 170 354 l 37 350 l 30 5 l 390 1 l 368 598 z "},"t":{"ha":424,"x_min":0,"x_max":0,"o":"m 7 964 l -10 800 l 156 808 b 126 -7 144 495 126 20 l 261 1 b 287 813 261 32 275 580 l 428 786 l 434 946 z "},"u":{"ha":511,"x_min":0,"x_max":0,"o":"m 339 938 l 339 146 l 163 109 l 193 956 l 55 938 l 22 1 l 476 13 l 476 959 z "},"ù":{"ha":511,"x_min":0,"x_max":0,"o":"m 339 938 l 339 146 l 163 109 l 193 956 l 55 938 l 22 1 l 476 13 l 476 959 z "},"ú":{"ha":511,"x_min":0,"x_max":0,"o":"m 339 938 l 339 146 l 163 109 l 193 956 l 55 938 l 22 1 l 476 13 l 476 959 z "},"û":{"ha":511,"x_min":0,"x_max":0,"o":"m 339 938 l 339 146 l 163 109 l 193 956 l 55 938 l 22 1 l 476 13 l 476 959 z "},"ü":{"ha":511,"x_min":0,"x_max":0,"o":"m 339 938 l 339 146 l 163 109 l 193 956 l 55 938 l 22 1 l 476 13 l 476 959 z "},"v":{"ha":388,"x_min":0,"x_max":0,"o":"m 247 940 l 183 507 l 147 959 l 7 963 l 107 1 l 249 18 l 387 959 z "},"w":{"ha":642,"x_min":0,"x_max":0,"o":"m 484 963 l 442 480 l 371 965 l 256 962 b 164 475 240 828 195 655 b 150 987 153 646 149 870 l 14 969 b 80 78 23 720 80 78 l 89 -9 l 206 5 b 303 571 206 5 273 388 l 386 4 b 520 36 427 14 520 36 l 639 989 z "},"x":{"ha":514,"x_min":0,"x_max":0,"o":"m 340 509 l 505 990 l 361 972 l 264 669 l 217 986 l 65 982 l 167 495 l -10 0 l 139 21 l 261 345 l 376 4 l 519 4 z "},"y":{"ha":432,"x_min":0,"x_max":0,"o":"m 310 970 l 217 746 l 113 970 l -15 962 l 152 562 l 142 1 l 278 24 l 289 563 l 448 988 z "},"ý":{"ha":432,"x_min":0,"x_max":0,"o":"m 310 970 l 217 746 l 113 970 l -15 962 l 152 562 l 142 1 l 278 24 l 289 563 l 448 988 z "},"ÿ":{"ha":432,"x_min":0,"x_max":0,"o":"m 310 970 l 217 746 l 113 970 l -15 962 l 152 562 l 142 1 l 278 24 l 289 563 l 448 988 z "},"z":{"ha":497,"x_min":0,"x_max":0,"o":"m 503 980 l 45 957 l 29 776 l 290 797 l -6 9 l 439 39 l 478 178 l 191 147 z "},"|":{"ha":182,"x_min":0,"x_max":0,"o":"m 147 0 l 147 1006 l 35 1006 l 35 0 z "},"~":{"ha":401,"x_min":0,"x_max":0,"o":"m 385 905 l 365 1046 l 234 1046 l 225 1105 l -33 1104 l 16 961 l 134 962 l 155 903 z "}," ":{"ha":258,"x_min":0,"x_max":0,"o":""},"«":{"ha":593,"x_min":0,"x_max":0,"o":"m 333 452 l 333 590 l 69 330 l 333 3 l 333 184 l 206 310 z m 569 587 l 283 327 l 547 0 l 547 182 l 420 307 l 551 427 z "},"­":{"ha":0,"x_min":0,"x_max":0,"o":""},"»":{"ha":633,"x_min":0,"x_max":0,"o":"m 290 607 l 290 425 l 417 300 l 255 152 l 236 20 l 564 322 z m 50 576 l 55 427 l 204 280 l 48 176 l 22 0 l 346 312 z "},"Ё":{"ha":393,"x_min":0,"x_max":0,"o":"m 268 804 l 308 803 l 362 800 l 386 951 l 35 964 l 35 0 l 353 21 l 361 174 l 171 146 l 171 371 l 353 419 l 361 556 l 171 544 l 171 808 z m 210 1083 l 115 1083 l 105 994 l 194 994 z m 326 1083 l 231 1083 l 220 994 l 309 994 z "},"А":{"ha":432,"x_min":0,"x_max":0,"o":"m 335 997 l 80 1019 l 14 14 l 176 32 l 176 262 l 241 252 l 251 23 l 424 0 z m 176 402 l 206 849 l 211 847 l 252 390 z "},"Б":{"ha":406,"x_min":0,"x_max":0,"o":"m 22 39 l 393 0 l 384 583 l 124 550 l 117 813 l 371 829 l 384 996 l -21 970 z m 141 405 l 256 427 l 256 125 l 141 150 z "},"В":{"ha":446,"x_min":0,"x_max":0,"o":"m 396 426 l 396 979 l 19 1003 l 59 17 l 424 84 l 424 400 z m 159 844 l 259 828 l 260 488 l 166 503 z m 288 188 l 192 136 l 173 374 l 288 341 z "},"Г":{"ha":375,"x_min":0,"x_max":0,"o":"m 171 514 l 171 826 l 255 816 l 311 809 l 369 802 l 389 967 l 35 981 l 35 0 l 171 25 l 171 377 z "},"Д":{"ha":463,"x_min":0,"x_max":0,"o":"m 387 189 l 404 942 l 70 965 l 70 155 l 4 148 l 4 -15 l 455 48 l 455 196 z m 192 839 l 266 850 l 254 175 l 200 169 z "},"Е":{"ha":393,"x_min":0,"x_max":0,"o":"m 362 800 l 386 951 l 35 964 l 35 0 l 353 21 l 361 174 l 171 146 l 171 371 l 353 419 l 361 556 l 171 544 l 171 808 l 268 804 l 308 803 z "},"Ж":{"ha":628,"x_min":0,"x_max":0,"o":"m 641 953 l 460 943 l 339 586 l 362 951 l 254 951 l 254 559 l 160 953 l 6 946 l 188 474 l -7 5 l 160 14 l 254 346 l 254 0 l 362 0 l 359 374 l 460 0 l 598 10 l 416 482 z "},"З":{"ha":379,"x_min":0,"x_max":0,"o":"m 205 813 l 190 571 l 28 538 l 22 407 l 197 430 l 182 135 l 14 174 l 22 0 l 319 0 l 343 500 l 279 526 l 331 557 l 362 948 l 19 951 l 23 801 z "},"И":{"ha":506,"x_min":0,"x_max":0,"o":"m 466 956 l 293 952 l 172 441 l 172 461 l 172 953 l 35 953 l 35 462 l 29 1 l 178 0 l 329 686 b 321 7 328 466 319 57 l 475 1 b 466 956 471 87 466 956 z "},"Й":{"ha":506,"x_min":0,"x_max":0,"o":"m 466 956 l 293 952 l 172 441 l 172 461 l 172 953 l 35 953 l 35 462 l 29 1 l 178 0 l 329 686 b 321 7 328 466 319 57 l 475 1 b 466 956 471 87 466 956 z m 338 1071 l 177 1071 l 159 983 l 310 983 z "},"К":{"ha":500,"x_min":0,"x_max":0,"o":"m 482 0 l 249 524 l 519 976 l 306 967 l 142 610 l 171 975 l 35 975 l 35 24 l 172 0 l 149 434 l 306 0 z "},"Л":{"ha":413,"x_min":0,"x_max":0,"o":"m 261 983 l 78 972 l 14 0 l 154 13 l 172 769 l 286 13 l 414 0 z "},"М":{"ha":533,"x_min":0,"x_max":0,"o":"m 499 974 l 366 956 b 282 616 366 956 318 728 l 164 967 l 38 955 l 36 518 l 31 2 l 184 0 l 186 594 l 278 369 b 376 582 278 369 362 538 b 349 0 364 328 349 5 l 497 4 b 499 918 497 12 500 749 z "},"Н":{"ha":468,"x_min":0,"x_max":0,"o":"m 318 962 l 303 576 l 179 548 l 189 982 l 35 968 l 35 0 l 165 33 l 184 449 l 307 484 l 293 12 l 416 51 l 445 984 z "},"О":{"ha":451,"x_min":0,"x_max":0,"o":"m 35 966 l 35 0 l 410 20 l 422 983 z m 291 100 l 160 129 l 160 869 l 291 858 z "},"П":{"ha":510,"x_min":0,"x_max":0,"o":"m 35 973 l 35 0 l 171 21 l 171 836 l 348 874 l 318 2 l 455 21 l 488 985 z "},"Р":{"ha":399,"x_min":0,"x_max":0,"o":"m 387 493 l 392 959 l 35 968 l 35 531 l 35 531 l 35 0 l 171 14 l 171 436 z m 171 830 l 288 829 l 302 626 l 171 586 z "},"С":{"ha":439,"x_min":0,"x_max":0,"o":"m 275 409 l 265 144 l 170 133 l 173 799 l 272 819 b 274 600 273 716 274 606 l 274 600 l 410 638 b 407 904 410 648 408 874 l 406 986 l 37 958 l 32 0 l 396 21 l 413 450 z "},"Т":{"ha":421,"x_min":0,"x_max":0,"o":"m 433 953 l 5 971 l -11 807 l 154 814 b 124 0 142 502 124 27 l 259 8 b 286 819 259 39 274 587 l 426 792 z "},"У":{"ha":500,"x_min":0,"x_max":0,"o":"m 382 969 l 232 611 l 186 976 l 22 961 l 146 433 l -6 0 l 147 4 l 517 968 z "},"Ф":{"ha":603,"x_min":0,"x_max":0,"o":"m 383 960 l 221 973 l 221 909 l 79 955 l 19 950 l 1 534 l 1 534 l 138 439 l 211 459 l 198 0 l 348 8 l 356 452 l 383 433 l 599 490 l 580 953 l 383 925 z m 126 585 l 138 833 l 221 832 l 215 612 z m 352 584 l 361 827 l 500 826 l 487 629 z "},"Х":{"ha":510,"x_min":0,"x_max":0,"o":"m 516 4 l 337 509 l 503 990 l 359 972 l 262 670 l 214 986 l 62 982 l 165 495 l -12 0 l 136 21 l 259 345 l 374 4 z "},"Ц":{"ha":611,"x_min":0,"x_max":0,"o":"m 474 118 l 474 951 l 338 931 l 338 138 l 161 102 l 191 949 l 54 931 l 21 -6 l 459 5 l 445 -110 l 587 -110 l 622 147 z "},"Ч":{"ha":482,"x_min":0,"x_max":0,"o":"m 325 949 l 305 625 l 154 566 l 161 947 b 24 938 141 945 69 942 l 6 413 l 286 485 l 245 -7 l 393 -22 l 472 949 l 504 949 z "},"Ш":{"ha":717,"x_min":0,"x_max":0,"o":"m 643 15 l 700 970 l 552 948 l 510 145 l 407 124 l 437 971 l 300 953 l 271 131 l 161 108 l 191 955 l 54 937 l 21 0 z "},"Щ":{"ha":781,"x_min":0,"x_max":0,"o":"m 651 132 l 700 960 l 552 938 l 510 135 l 407 113 l 437 960 l 300 942 l 271 121 l 161 98 l 191 945 l 54 927 l 21 -10 l 621 4 l 607 -99 l 750 -99 l 785 158 z "},"Ъ":{"ha":471,"x_min":0,"x_max":0,"o":"m 107 441 l 107 0 l 464 9 l 460 479 l 243 536 l 243 962 l 180 969 l -15 996 l 13 847 l 107 834 l 107 441 z m 243 385 l 374 345 l 360 140 l 243 139 z "},"Ы":{"ha":633,"x_min":0,"x_max":0,"o":"m 465 951 l 439 4 l 588 12 l 606 963 z m 171 536 l 171 962 l 35 976 l 35 441 l 35 441 l 35 0 l 392 9 l 387 479 z m 288 140 l 171 139 l 171 385 l 302 345 z "},"Ь":{"ha":399,"x_min":0,"x_max":0,"o":"m 171 536 l 171 962 l 35 976 l 35 441 l 35 441 l 35 0 l 392 9 l 387 478 z m 171 385 l 302 345 l 288 140 l 171 139 z "},"Э":{"ha":401,"x_min":0,"x_max":0,"o":"m 36 965 l 24 616 l 136 663 l 136 841 l 257 855 l 249 543 l 54 502 l 55 412 l 246 432 l 240 187 l 150 167 l 148 319 l 24 277 b 26 83 24 267 25 113 l 27 0 l 364 29 l 369 986 z "},"Ю":{"ha":663,"x_min":0,"x_max":0,"o":"m 633 0 l 622 964 l 258 999 l 258 588 l 183 598 l 191 1001 l 50 989 l 24 42 l 173 50 l 181 455 l 258 445 l 258 28 z m 383 886 l 514 875 l 514 117 l 383 145 z "},"Я":{"ha":476,"x_min":0,"x_max":0,"o":"m 452 968 l 38 979 l 80 467 l 248 532 b -6 0 193 408 38 87 l 153 5 b 295 353 190 84 239 228 b 296 23 299 184 290 7 l 426 10 z m 314 664 l 175 634 l 182 859 l 327 859 z "},"а":{"ha":432,"x_min":0,"x_max":0,"o":"m 335 997 l 80 1019 l 14 14 l 176 32 l 176 262 l 241 252 l 251 23 l 424 0 z m 176 402 l 206 849 l 211 847 l 252 390 z "},"б":{"ha":406,"x_min":0,"x_max":0,"o":"m 22 39 l 393 0 l 384 583 l 124 550 l 117 813 l 371 829 l 384 996 l -21 970 z m 141 405 l 256 427 l 256 125 l 141 150 z "},"в":{"ha":446,"x_min":0,"x_max":0,"o":"m 396 409 l 396 962 l 19 987 l 59 0 l 424 67 l 424 383 z m 159 827 l 259 812 l 260 472 l 166 486 z m 288 171 l 192 119 l 173 358 l 288 324 z "},"г":{"ha":375,"x_min":0,"x_max":0,"o":"m 171 514 l 171 826 l 255 816 l 311 809 l 369 802 l 389 967 l 35 981 l 35 0 l 171 25 l 171 377 z "},"д":{"ha":463,"x_min":0,"x_max":0,"o":"m 387 204 l 404 957 l 70 980 l 70 170 l 4 163 l 4 0 l 455 63 l 455 212 z m 192 854 l 266 865 l 254 190 l 200 184 z "},"е":{"ha":393,"x_min":0,"x_max":0,"o":"m 362 800 l 386 951 l 35 964 l 35 0 l 353 21 l 361 174 l 171 146 l 171 371 l 353 419 l 361 556 l 171 544 l 171 808 l 268 804 l 308 803 z "},"ж":{"ha":628,"x_min":0,"x_max":0,"o":"m 641 953 l 460 943 l 339 586 l 362 951 l 254 951 l 254 559 l 160 953 l 6 946 l 188 474 l -7 5 l 160 14 l 254 346 l 254 0 l 362 0 l 359 374 l 460 0 l 598 10 l 416 482 z "},"з":{"ha":379,"x_min":0,"x_max":0,"o":"m 205 813 l 190 571 l 28 538 l 22 407 l 197 430 l 182 135 l 14 174 l 22 0 l 319 0 l 343 500 l 279 526 l 331 557 l 362 948 l 19 951 l 23 801 z "},"и":{"ha":506,"x_min":0,"x_max":0,"o":"m 466 956 l 293 952 l 172 441 l 172 461 l 172 953 l 35 953 l 35 462 l 29 1 l 178 0 l 329 686 b 321 7 328 466 319 57 l 475 1 b 466 956 471 87 466 956 z "},"й":{"ha":506,"x_min":0,"x_max":0,"o":"m 466 956 l 293 952 l 172 441 l 172 461 l 172 953 l 35 953 l 35 462 l 29 1 l 178 0 l 329 686 b 321 7 328 466 319 57 l 475 1 b 466 956 471 87 466 956 z m 338 1071 l 177 1071 l 159 983 l 310 983 z "},"к":{"ha":500,"x_min":0,"x_max":0,"o":"m 482 0 l 249 524 l 519 976 l 306 967 l 142 610 l 171 975 l 35 975 l 35 24 l 172 0 l 149 434 l 306 0 z "},"л":{"ha":413,"x_min":0,"x_max":0,"o":"m 261 983 l 78 972 l 14 0 l 154 13 l 172 769 l 286 13 l 414 0 z "},"м":{"ha":533,"x_min":0,"x_max":0,"o":"m 499 974 l 366 956 b 282 616 366 956 318 728 l 164 967 l 38 955 l 36 518 l 31 2 l 184 0 l 186 594 l 278 369 b 376 582 278 369 362 538 b 349 0 364 328 349 5 l 497 4 b 499 918 497 12 500 749 z "},"н":{"ha":468,"x_min":0,"x_max":0,"o":"m 318 962 l 303 576 l 179 548 l 189 982 l 35 968 l 35 0 l 165 33 l 184 449 l 307 484 l 293 12 l 416 51 l 445 984 z "},"о":{"ha":451,"x_min":0,"x_max":0,"o":"m 35 966 l 35 0 l 410 20 l 422 983 z m 291 100 l 160 129 l 160 869 l 291 858 z "},"п":{"ha":510,"x_min":0,"x_max":0,"o":"m 35 973 l 35 0 l 171 21 l 171 836 l 348 874 l 318 2 l 455 21 l 488 985 z "},"р":{"ha":399,"x_min":0,"x_max":0,"o":"m 387 493 l 392 959 l 35 968 l 35 531 l 35 531 l 35 0 l 171 14 l 171 436 z m 171 830 l 288 829 l 302 625 l 171 586 z "},"с":{"ha":439,"x_min":0,"x_max":0,"o":"m 275 409 l 265 144 l 170 133 l 173 799 l 272 819 b 274 600 273 716 274 606 l 274 600 l 410 638 b 407 904 410 648 408 874 l 406 986 l 37 958 l 32 0 l 396 21 l 413 450 z "},"т":{"ha":421,"x_min":0,"x_max":0,"o":"m 433 953 l 5 971 l -11 807 l 154 814 b 124 0 142 502 124 27 l 259 8 b 285 819 259 39 274 587 l 426 792 z "},"у":{"ha":500,"x_min":0,"x_max":0,"o":"m 382 969 l 232 611 l 186 976 l 22 961 l 146 433 l -6 0 l 147 4 l 517 968 z "},"ф":{"ha":603,"x_min":0,"x_max":0,"o":"m 383 960 l 221 973 l 221 909 l 79 955 l 19 950 l 1 534 l 1 534 l 138 439 l 211 459 l 198 0 l 348 8 l 356 452 l 383 433 l 599 490 l 580 953 l 383 925 z m 126 585 l 138 833 l 221 832 l 215 612 z m 352 584 l 361 827 l 500 826 l 487 629 z "},"х":{"ha":510,"x_min":0,"x_max":0,"o":"m 516 4 l 337 509 l 503 990 l 359 972 l 262 670 l 214 986 l 62 982 l 165 495 l -12 0 l 136 21 l 259 345 l 374 4 z "},"ц":{"ha":613,"x_min":0,"x_max":0,"o":"m 474 129 l 474 962 l 338 942 l 338 149 l 161 113 l 191 960 l 54 942 l 21 5 l 459 16 l 445 -99 l 587 -99 l 622 158 z "},"ч":{"ha":482,"x_min":0,"x_max":0,"o":"m 325 954 l 305 630 l 154 572 l 161 952 b 24 944 141 950 69 947 l 6 419 l 286 491 l 245 -2 l 393 -17 l 472 954 l 504 954 z "},"ш":{"ha":717,"x_min":0,"x_max":0,"o":"m 643 15 l 700 970 l 552 948 l 510 145 l 407 124 l 437 971 l 300 953 l 271 131 l 161 108 l 191 955 l 54 937 l 21 0 z "},"щ":{"ha":781,"x_min":0,"x_max":0,"o":"m 651 137 l 700 965 l 552 943 l 510 140 l 407 119 l 437 966 l 300 948 l 271 126 l 161 103 l 191 950 l 54 932 l 21 -5 l 621 10 l 607 -93 l 750 -93 l 785 163 z "},"ъ":{"ha":471,"x_min":0,"x_max":0,"o":"m 107 441 l 107 0 l 464 9 l 460 479 l 243 536 l 243 962 l 180 969 l -15 996 l 13 847 l 107 834 l 107 441 z m 243 385 l 374 345 l 360 140 l 243 139 z "},"ы":{"ha":633,"x_min":0,"x_max":0,"o":"m 465 951 l 439 4 l 588 12 l 606 963 z m 171 536 l 171 962 l 35 976 l 35 441 l 35 441 l 35 0 l 392 9 l 387 478 z m 288 140 l 171 139 l 171 385 l 302 345 z "},"ь":{"ha":399,"x_min":0,"x_max":0,"o":"m 171 536 l 171 962 l 35 976 l 35 441 l 35 441 l 35 0 l 392 9 l 387 478 z m 171 385 l 302 345 l 288 140 l 171 139 z "},"э":{"ha":401,"x_min":0,"x_max":0,"o":"m 36 965 l 24 616 l 136 663 l 136 841 l 257 855 l 249 543 l 54 502 l 55 412 l 246 432 l 240 187 l 150 167 l 148 319 l 24 277 b 26 83 24 267 25 113 l 27 0 l 364 28 l 369 986 z "},"ю":{"ha":663,"x_min":0,"x_max":0,"o":"m 633 0 l 622 964 l 258 999 l 258 588 l 183 598 l 191 1001 l 50 989 l 24 42 l 173 50 l 181 455 l 258 445 l 258 28 z m 383 886 l 514 875 l 514 117 l 383 145 z "},"я":{"ha":476,"x_min":0,"x_max":0,"o":"m 452 968 l 38 979 l 80 467 l 248 532 b -6 0 193 408 38 87 l 153 5 b 295 353 190 84 239 228 b 296 23 299 184 290 7 l 426 10 z m 314 664 l 175 634 l 182 859 l 327 859 z "},"ё":{"ha":393,"x_min":0,"x_max":0,"o":"m 268 804 l 308 803 l 362 800 l 386 951 l 35 964 l 35 0 l 353 21 l 361 174 l 171 146 l 171 371 l 353 419 l 361 556 l 171 544 l 171 808 z m 210 1083 l 115 1083 l 105 994 l 194 994 z m 326 1083 l 231 1083 l 220 994 l 309 994 z "},"—":{"ha":596,"x_min":0,"x_max":0,"o":"m 555 599 l 35 601 l 39 451 l 561 467 z "},"“":{"ha":378,"x_min":0,"x_max":0,"o":"m 237 1126 l 201 869 l 350 898 l 379 1126 z m 18 869 l 166 898 l 196 1126 l 54 1126 z "},"”":{"ha":375,"x_min":0,"x_max":0,"o":"m 18 881 l 160 881 l 196 1137 l 48 1108 z m 231 1108 l 201 881 l 344 881 l 379 1137 z "},"№":{"ha":840,"x_min":0,"x_max":0,"o":"m 333 270 l 182 956 l 33 955 l 40 494 l 40 3 l 176 3 l 176 495 l 176 515 l 297 4 l 470 0 b 480 955 470 0 475 869 l 325 949 b 333 270 323 899 332 490 z m 819 528 l 566 528 l 531 132 l 790 134 z m 717 243 l 631 258 l 641 419 l 745 432 z m 538 13 l 809 29 l 819 118 l 535 113 z "}}}
